<?xml version="1.0" encoding="utf-8"?>
<!-- Generator: Adobe Illustrator 21.0.0, SVG Export Plug-In . SVG Version: 6.00 Build 0)  -->
<!DOCTYPE svg PUBLIC "-//W3C//DTD SVG 1.1//EN" "http://www.w3.org/Graphics/SVG/1.1/DTD/svg11.dtd">
<svg version="1.1" id="Layer_1" xmlns="http://www.w3.org/2000/svg" xmlns:xlink="http://www.w3.org/1999/xlink" x="0px" y="0px"
	 viewBox="0 0 713 360.3" style="enable-background:new 0 0 713 360.3;" xml:space="preserve">
<style type="text/css">
	.st0{fill:#F9E3D2;}
	.st1{fill:#DC7676;}
	.st2{fill:#F79029;}
	.st3{fill:#FFEFD5;}
	.st4{fill:#FBAE25;}
	.st5{fill:#EEBC7F;}
	.st6{fill:#E0845F;}
	.st7{fill:#F8E2D2;}
	.st8{opacity:0.3;}
	.st9{fill:#F7C269;}
	.st10{opacity:0.7;fill:#F8E2D2;}
</style>
<g>
	<g id="XMLID_2_">
		<path id="XMLID_33_" class="st0" d="M130.9,20.8c15.4-8,26.7-17.8,36.5-14.9c11.2,3.3,10.2,11.5,3,20.2
			c-6.2,7.4-4.3,29.1-2.5,39.1c2.5,13.9,3.6,15.8,15.3,28c7.2,7.5,15.3,20.9,18.8,45.5c2.2,15.7-2.2,32.5-15.5,52.2
			c-6.4,9.5-18.9,16.5-29.6,17.6c-16,1.6-32.9,0-49.2,0c-17.9,0-30.8-6.2-38.7-23.5c-9.5-20.9-15-43.7-5.7-67.1
			c8.3-21,11.2-22.1,18.2-31.4c4.5-5.9,10.5-13.6,10.4-21.1c-0.3-18.1-9-19.6,2.3-29.8C104.3,26.2,119.2,27,130.9,20.8z"/>
		<path id="XMLID_32_" class="st0" d="M91.8,81.3c1.5-8.3-17.1-18.9-24.5-21.2c-12.6-3.8-25.2,0.5-35.8,7.8
			c-9.6,6.6-14.1,17.4-13.9,28.7c0.2,12.2,10.8,20.9,19.9,27.9c9.6,7.3,20,13.6,30,20.3c3.1-4.6,3.5-10.8,3-16.2
			C55,127.2,27.1,105.6,30.8,88c1.8-8.8,13.6-15.3,21.9-16.4c10.9-1.4,19.2,5,27.2,11.9c2.9,2.6,6.8,7.2,8.6,9.1L91.8,81.3z"/>
		<path id="XMLID_31_" class="st1" d="M164.8,77.8c0,0,8.6,19,13.9,27.3c6.1,9.6,10.3,18.5,12.1,29.6c3.3,20.4-4.7,50.3-23.9,61.7
			c-9.9,5.9-20.3,0.6-31.8,0c-12.2-0.6-16.6,0.4-28.5,2.3c-12.6,2.1-23.1-6.1-28.6-16.7c-4.9-9.4-6.3-14.7-7.7-25.4
			c-2.2-15.8,0.3-30.1,3.6-39.7c2.2-6.4,8.6-16.7,12-22.6c4.8-8.4,10.8-17.6,10.8-17.6c5.5-3.4,14.4-0.2,20.1,1c8,1.7,16,4,24.2,4.6
			C143.7,82.4,154.1,84.1,164.8,77.8z"/>
		<g id="XMLID_20_">
			<path id="XMLID_30_" class="st2" d="M92.6,141.9c1.9-1.4,4-2.5,6.1-3.3c2.2-0.8,4.5-1.3,6.7-1.6c2.3-0.2,4.6-0.1,6.9,0.2
				c2.3,0.4,4.5,1,6.6,1.9c2.1,0.9,4,2.3,5.8,3.8c1.7,1.4,3.3,3.1,4.7,5c1.4,1.9,2.5,3.9,3.3,6c0.8,2.2,1.3,4.4,1.5,6.7
				c0.2,2.3,0.2,4.6-0.1,6.9c-0.4,2.3-1.1,4.4-2,6.6c-0.9,2.1-2.1,4.1-3.6,5.9c-1.4,1.7-3,3.5-4.9,4.8c-1.9,1.4-4,2.5-6.1,3.3
				c-2.2,0.8-4.5,1.2-6.7,1.4c-2.3,0.2-4.6,0.3-6.9-0.1c-2.3-0.4-4.5-1.1-6.6-2c-2.1-0.9-4.1-2-6-3.5c-1.8-1.4-3.3-3.1-4.7-5.1
				c-1.4-1.9-2.6-3.9-3.4-6c-0.8-2.2-1.2-4.5-1.5-6.7c-0.2-2.3-0.1-4.6,0.3-6.9c0.4-2.3,0.8-4.6,1.7-6.7c0.9-2.1,2.3-4,3.7-5.8
				C89.1,145,90.7,143.3,92.6,141.9z"/>
			<path id="XMLID_29_" class="st3" d="M93.9,143.7c2.1-1.5,4.5-2.4,6.9-3.2c2.4-0.8,4.9-1.1,7.4-1.1c2.5,0,5.1,0,7.5,0.7
				c2.4,0.8,4.9,1.7,6.9,3.2c2,1.5,3.6,3.6,5.1,5.7c1.5,2.1,2.6,4.4,3.4,6.8c0.8,2.4,0.8,4.9,0.7,7.5c0,2.5,0.4,5.2-0.4,7.6
				c-0.8,2.4-1.9,4.8-3.4,6.9c-1.5,2-3.6,3.6-5.7,5.1c-2.1,1.5-4.5,2.4-6.8,3.1c-2.4,0.8-4.9,1.4-7.4,1.4c-2.5,0-5.1-0.2-7.5-1
				c-2.4-0.8-4.9-1.7-6.9-3.2c-2-1.5-4-3.3-5.5-5.4c-1.5-2.1-2-4.8-2.8-7.1c-0.8-2.4-1.3-4.9-1.3-7.4c0-2.5,0.2-5.1,1-7.5
				c0.8-2.4,2.3-4.5,3.8-6.5C90.2,147.3,91.8,145.3,93.9,143.7z"/>
			<path id="XMLID_28_" class="st4" d="M90.6,174.5c1.8-0.3,14.7-8.9,14.6-10.6c0,0-15.8-2.8-17.5-2.4
				C85.9,161.8,88.7,174.8,90.6,174.5z"/>
			<path id="XMLID_27_" class="st4" d="M106.2,162.8c-1.5-2.8-8.3-15.6-10-16.1c-1.7-0.6-9.9,10.5-8.5,11.8
				C89.1,159.7,107,164.3,106.2,162.8z"/>
			<path id="XMLID_26_" class="st4" d="M118.4,180.5c-0.1-3-8.2-14.8-10.2-14.4c-2,0.3-2.8,15.3-1.6,17.9
				C107.5,185.8,118.5,183.7,118.4,180.5z"/>
			<path id="XMLID_25_" class="st4" d="M103,182.7c1.4-1.2,4.2-15.7,3.2-16.3c-1-0.6-13.6,8.7-14.3,10.5
				C91.3,178.7,100.6,184.7,103,182.7z"/>
			<path id="XMLID_24_" class="st4" d="M126.3,154.6c-6.2,2.7-16.1,7.4-15.8,8.6c0.2,0.7,14.5,2.7,17.3,3.6
				C131,167.8,128.7,153.5,126.3,154.6z"/>
			<path id="XMLID_23_" class="st4" d="M110.1,164.7c-0.9,1.5,7.9,10.3,11.2,14.2c1.2,1.4,8.5-6.5,6.9-9
				C126.4,167.1,111,163.2,110.1,164.7z"/>
			<path id="XMLID_22_" class="st4" d="M98.6,145.2c2.1,4.7,7.1,16.8,9.1,17.2c2,0.4,4.4-16.7,2.6-19
				C108.5,141,97.3,142.3,98.6,145.2z"/>
			<path id="XMLID_21_" class="st4" d="M110.3,160.2c-0.3,1.2-0.7,1.8,0.6,1c1.4-0.8,9.4-5.1,11.2-6c1.8-0.9,5.2-3,1.9-6.7
				c-3.2-3.7-6.8-4.8-9.1-5.1c-2.3-0.3-2.4,2.3-2.6,4.2C112.2,149.4,110.9,157.9,110.3,160.2z"/>
		</g>
		<g id="XMLID_9_">
			<path id="XMLID_19_" class="st2" d="M172.3,108.5c0.8,2,1.4,4,1.6,6c0.3,2.1,0.2,4.2,0,6.2c-0.3,2.1-0.9,4.1-1.7,6
				c-0.8,1.9-1.8,3.8-3.1,5.4c-1.3,1.6-2.9,3-4.5,4.3c-1.6,1.2-3.4,2.2-5.4,3c-2,0.8-4,1.4-6,1.7c-2.1,0.3-4.2,0.2-6.2-0.1
				c-2.1-0.3-4.1-0.8-6-1.6c-1.9-0.8-3.7-1.9-5.3-3.2c-1.6-1.3-3.1-2.7-4.4-4.4c-1.2-1.6-2.4-3.4-3.2-5.3c-0.8-2-1.3-4-1.6-6
				c-0.3-2.1-0.1-4.2,0.2-6.2c0.3-2.1,0.7-4.1,1.5-6c0.8-1.9,1.9-3.7,3.2-5.3c1.3-1.6,2.6-3.2,4.3-4.5c1.6-1.2,3.5-2.2,5.4-3
				c2-0.8,4-1.4,6-1.7c2.1-0.3,4.2-0.1,6.2,0.1c2.1,0.3,4,0.9,6,1.7c1.9,0.8,3.8,1.7,5.5,2.9c1.6,1.3,3,2.8,4.3,4.5
				C170.3,104.8,171.5,106.6,172.3,108.5z"/>
			<path id="XMLID_18_" class="st3" d="M170.4,109.2c0.9,2.2,1.2,4.5,1.3,6.7c0.2,2.3-0.1,4.5-0.6,6.7c-0.5,2.2-1,4.5-2.2,6.4
				c-1.2,1.9-2.5,3.9-4.3,5.4c-1.7,1.4-3.9,2.4-6.1,3.3c-2.2,0.9-4.4,1.4-6.6,1.6c-2.3,0.2-4.5-0.4-6.7-0.9c-2.2-0.5-4.6-0.8-6.6-2
				c-1.9-1.2-3.8-2.7-5.3-4.5c-1.4-1.7-2.4-3.9-3.3-6.1c-0.9-2.2-1.1-4.4-1.3-6.7c-0.2-2.3-0.2-4.6,0.3-6.8c0.5-2.2,1.3-4.4,2.5-6.4
				c1.2-1.9,2.5-3.9,4.3-5.4c1.7-1.4,3.7-2.8,5.9-3.7c2.2-0.9,4.6-0.8,6.8-0.9c2.3-0.2,4.6-0.1,6.8,0.4c2.2,0.5,4.4,1.3,6.4,2.5
				c1.9,1.2,3.4,3,4.9,4.7C168,105.3,169.5,107.1,170.4,109.2z"/>
			<path id="XMLID_17_" class="st4" d="M144.1,99.8c-0.1,1.7,4.7,14.8,6.2,15.1c0,0,5.8-13.3,5.9-14.9
				C156.3,98.4,144.2,98.2,144.1,99.8z"/>
			<path id="XMLID_16_" class="st4" d="M151.1,116c2.8-0.7,15.4-4,16.3-5.4c0.9-1.4-7.2-10.9-8.6-9.9
				C157.4,101.7,149.6,116.4,151.1,116z"/>
			<path id="XMLID_15_" class="st4" d="M132.9,123c2.7,0.6,14.7-4.1,14.8-5.9c0.2-1.8-12.9-5.7-15.4-5.2
				C130.6,112.3,130.1,122.4,132.9,123z"/>
			<path id="XMLID_14_" class="st4" d="M134.3,109c0.7,1.4,12.9,7,13.6,6.3c0.7-0.7-4.7-13.8-6.2-14.7
				C140.3,99.5,133,106.5,134.3,109z"/>
			<path id="XMLID_13_" class="st4" d="M154,135.4c-1.1-6-3.1-15.7-4.2-15.7c-0.6,0-5.5,12.2-6.8,14.4
				C141.4,136.7,154.4,137.7,154,135.4z"/>
			<path id="XMLID_12_" class="st4" d="M148.5,119c-1.1-1.1-10.7,4.8-14.8,6.8c-1.5,0.8,3.9,8.9,6.4,8
				C143,132.8,149.7,120.1,148.5,119z"/>
			<path id="XMLID_11_" class="st4" d="M168.1,113.1c-4.5,0.9-16.2,2.7-17,4.4c-0.8,1.7,13.7,7.4,16.1,6.3
				C169.7,122.7,170.9,112.5,168.1,113.1z"/>
			<path id="XMLID_10_" class="st4" d="M152.5,120.2c-1-0.5-1.4-1-1,0.4c0.4,1.4,2.5,9.3,2.9,11.1c0.4,1.7,1.5,5.2,5.4,3.1
				c3.9-2.1,5.7-5,6.4-6.9c0.7-1.9-1.6-2.6-3.1-3.1C161.6,124.2,154.4,121.2,152.5,120.2z"/>
		</g>
		<g id="XMLID_6_">
			<path id="XMLID_8_" class="st5" d="M99.1,98.5c-2.9,2.2-4.7,6-5.2,9.6c-0.8,5.2,1.2,11.8,4.3,16c1.3,1.7,1.7,2.4,3.8,2.4
				c2.7,0,5.2-0.7,7.8-1.2c1.2-0.2,4.4-0.3,5.3-1.2c0.9-0.9,0.8-4.4,1.2-5.8c0.7-2.9,1.5-5,3.4-7.3c1.9-2.3,4.1-3.3,2.2-6.5
				c-2.1-3.5-5.3-7.4-8.7-9.7c-2.5-1.7-5.1-1.4-7.6-0.3C102.9,95.8,101.5,96.7,99.1,98.5z"/>
			<path id="XMLID_7_" class="st6" d="M102.6,121.8c0.2-5.3,0.8-11.2,3.2-16c1.3-2.7,3.1-5.2,4.7-7.7c0.6-1,1.6-2.2,2.1-3.5
				c-2.3-1.3-4.8-1.1-7.1-0.1c-2.7,1.2-4.1,2.1-6.5,3.9c-2.9,2.2-4.7,6-5.2,9.6c-0.8,5.2,1.2,11.8,4.3,16c1.3,1.7,1.7,2.4,3.8,2.4
				c0.2,0,0.3,0,0.5,0C102.6,124.9,102.5,123.3,102.6,121.8z"/>
		</g>
		<g id="XMLID_3_">
			<path id="XMLID_5_" class="st5" d="M154,173.5c3,0.8,6.2-0.1,8.6-1.8c3.4-2.4,6-7.6,6.6-12.1c0.2-1.9,0.3-2.6-0.9-4
				c-1.6-1.9-3.6-3.3-5.4-4.8c-0.8-0.7-2.8-3-3.9-3.1c-1.1-0.1-3,1.9-4,2.4c-2.1,1.1-3.8,1.7-6.2,1.7c-2.5,0-4.4-1-5,2.1
				c-0.7,3.5-1.1,8-0.3,11.7c0.5,2.7,2.3,4.4,4.4,5.6C150.1,172.4,151.5,172.8,154,173.5z"/>
			<path id="XMLID_4_" class="st6" d="M165.2,157.8c-3.2,2.8-6.9,5.8-11.1,6.8c-2.3,0.6-4.8,0.8-7.2,1c-0.9,0.1-2.2,0.1-3.3,0.5
				c0.6,2.4,2.3,4,4.3,5.1c2.3,1.2,3.7,1.7,6.1,2.4c3,0.8,6.2-0.1,8.6-1.8c3.4-2.4,6-7.6,6.6-12.1c0.2-1.9,0.3-2.6-0.9-4
				c-0.1-0.1-0.2-0.2-0.3-0.3C167,156,166.1,157,165.2,157.8z"/>
		</g>
	</g>
	<g id="XMLID_1_">
		<path id="XMLID_7635_" class="st7" d="M492.7,68.2c-2.9-2.3-3-4.5-1.3-7.4c1.8-3,4.6-5,6.5-7.8c1.7-2.5,4.8-5.3,2-8.2
			c-2.7-2.8-6.3-1.5-9.5,0.2c-1.9,1.1-3.5,2.7-4.6,4.5c-1.2,1.8-2.4,3.7-3.3,5.7c-2.4,5.2-6.7,6.9-12,6.6
			c-5.6-0.3-10.7,0.9-15.1,4.7c-4.1,3.6-8.1,7.4-11,12c-3.1,4.9-6.4,9.9-6.9,16c-0.7,9.9,6.3,21.2,15.5,25.4
			c1.8,0.8,3.4,1.3,2.4,3.7c-2.5,6.2-2.6,12.5-0.7,18.8c0.6,2.1-0.1,3.3-2.2,4c-2.8,0.9-5.3,2.3-7,4.7c-4.3,6.3-7,13.2-7.2,20.9
			c-0.3,11.3,6.2,19.5,13.1,27.3c4.5,5.1,10.5,7.6,17.5,7.4c1.8-0.2,3.6-0.1,5.3-0.5c13.7-3.2,27.9-15.8,23.7-37
			c-1.5-7.6-4.3-14.3-11.4-18c-6.4-3.3-12.8-6.8-20.2-7.2c-1.8-0.1-2.6-1.1-3.3-2.6c-2.9-6.3-0.8-12.3,1.1-18.3
			c0.4-1.4,1.7-1.5,3-1.5c2.9,0,5.7,0.2,8.6-0.1c5.9-0.7,11.9-1.4,15.3-7.1c3.1-5.1,5.7-10.5,8.5-15.7
			C504.8,88.8,500.7,74.5,492.7,68.2z M467.2,152.9c6.3,1.3,11.8,4.3,16.6,8.4c4.6,4,4,9.6,4.6,16.1c0.4,4.2-1.4,8.3-4.5,12.4
			c-7.4,9.5-19,7.9-26.5,0.8c-8.4-7.9-9.6-17.9-6.8-28.6C451.9,157,461.5,151.7,467.2,152.9z M482.1,109.9c-0.4,0.4-0.9,0.7-1.3,0.9
			c-9.4,5.2-25.7,0.8-30.6-8.6c-2.6-5-2.9-10.6,0.2-15.3c4.9-7.4,10.3-14.5,20.2-15.7c6.2-0.7,11.9,0.9,16.7,4.4
			c4.6,3.4,4,9.2,4.6,13.8C491.6,98.1,488.1,104.6,482.1,109.9z"/>
		<path id="XMLID_7632_" class="st7" d="M356.8,140.6c0.6-11.4-0.1-22.9-0.4-34.3c-0.2-10.2-1.2-20.6-3-30.8
			c-1.8-10.3-7.2-15.8-17-17.1c-11.7-1.6-21.8,2.3-29.8,11c-2.4,2.6-1.9,6.5,0.7,8.3c3,2.1,5.5,1.4,7.8-2c4.5-6.5,11.1-8.5,18.4-8
			c5.3,0.4,8.7,4.1,9.9,9c1.5,6.1,2.7,12.3,2.5,18.6c0,1.5,0.1,3,0,4.5c-0.2,3.9-0.8,4.3-4.4,2.7c-2.5-1.1-5-2.4-7.6-2.9
			c-11.8-2.1-18.8-0.6-25.5,10.9c-3,5.1-4.4,10.8-5.3,16.7c-0.4,2.8-0.2,5.4,0.8,8c3.2,8.4,15.8,16.1,24.6,14.9
			c4.2-0.6,8.1-2.2,11.9-4.2c7.2-3.9,7.2-4,7.2,4.2c0,3,0.6,5.9,3.9,6.3c3.6,0.4,4.7-2.5,5.4-5.5C357.7,147.4,356.6,144,356.8,140.6
			z M343.3,131.8c-5.7,5.3-11.3,10.5-19.6,7.3c-11.3-4.3-12-6.3-8.8-18.6c1.7-6.7,6.9-10.1,13.6-11.2c7.1-1.2,12,2.1,15.9,7.5
			c1.4,2,1,4.5,0.9,6.9C345.2,126.4,346.1,129.2,343.3,131.8z"/>
		<path id="XMLID_7628_" class="st7" d="M263.5,56.8c6.5-1.8,12.1-0.6,16.6,4.7c2.4,2.8,2.6,6.4,3.7,9.8c0.6,1.9,1.6,3.3,2.9,3.8
			c1.9,0.8,3.8,0.3,5.7-0.9c2.3-1.4,3.5-6.6,1.2-10.5c-6-10.1-14.6-15.8-24.9-16.4c-10.1,0.2-17.6,3-23.6,9.2
			c-5.5,5.7-9.4,12.4-11.9,19.8c-1.6,4.7-1.8,9.9,0.5,14.4c3.7,7.2,7.5,13.9,17.9,13.7c4.1-0.1,8.4,0.3,12.6,0
			c5.4-0.5,9.6,1.2,12.4,6c1.2,2,2.7,3.8,3.8,5.8c3.8,6.9,1.4,13.2-2.2,19.3c-3.4,5.7-8.4,8.5-15.1,7.6c-4.5-0.6-8.9-1.5-12.3-4.8
			c-2.9-2.8-1.6-6.3-1.4-9.7c0.2-3-2.2-5.2-5.2-5c-3.8,0.2-7.2,5-6.5,8.8c1.8,9.8,8.4,15.4,17.2,18.5c6.5,2.3,13.5,4.6,20.2,0.9
			c8.7-4.8,14.9-12.2,16.5-21.9c1.5-8.5,0.3-9.4-2.2-17.3c-1.6-5-3.2-7.2-5.9-10.4c-2.8-3.3-5.5-4.2-9.6-5
			c-5.8-1.2-11.7-0.4-17.5-0.7c-9.1-0.4-13.4-4.9-13.4-13.9C242.9,71.6,252.2,60,263.5,56.8z"/>
		<path id="XMLID_7624_" class="st7" d="M423,104.6c-0.2-6.2-1.2-12.3-0.7-18.6c0.4-5-4.1-7.1-8.4-4.4c-2.5,1.5-2.4,3.7-2.5,6
			c-0.2,11.3,4,22.3,1.8,33.7c-0.4,1.9,0.5,4.8-1.6,5.5c-2.1,0.7-3.4-1.9-4.5-3.5c-5-7.5-10.9-14.3-16.6-21.2
			c-2.6-3.2-5.3-6.2-8.1-9.2c-3.7-3.9-8.7-5-11.1-1.9c-2.3,2.9-4.4,6.8-3.6,10.4c1,4.6,1.1,9.2,1.8,13.7c1.8,11.1,4.4,22.2,4.3,34.6
			c-0.1,0.8-0.2,2.7-0.4,4.6c-0.3,2.7,1.4,4,3.5,4.9c2.3,1.1,3.9-0.2,5.2-2c1.9-2.8,1.9-5.8,1.4-9c-2.1-13.7-2.2-27.7-6.1-41.2
			c-0.3-1-0.6-2.3,0.7-2.9c1-0.4,1.8,0.4,2.5,1c2.9,2.2,4.9,5.1,7.2,7.8c7.5,9.2,16.3,17.6,20,29.5c1.4,4.5,3.4,5.3,7.8,4.3
			c5.8-1.3,8.4-3.7,7.9-8.1C422.3,127.2,423.4,115.9,423,104.6z"/>
		<path id="XMLID_7623_" class="st7" d="M535.5,106.9c1.6-2.7,3.5-4.7,6.4-6.1c2.9-1.3,6-1.8,9.1-2.4c12.7-2.5,12.7-2.5,17.7,9.2
			c0.5,1.1,0.8,2.3,2.5,2.3c2-0.1,6.2-3.8,6.2-5.8c0-8.2-7.4-17.8-15.9-16.8c-4.5,0.6-8.8,1.8-13.1,2.9c-0.9,0.2-1.9,0.8-2.7-0.1
			c-0.9-0.9-0.6-2-0.2-3.1c0.8-2.2,2.7-3.4,4-5.1c1.8-2.4,3.2-5.2,1.4-7.9c-1.8-2.6-4.8-2.8-7.8-2c-1.9,0.5-2.7,1.8-3.6,3.5
			c-0.6,1.1-3.1,6.1-3.8,7.2c-1.3,1.9-4.4,8.5-7.7,14.6c-6.9,12.9-12.1,26.6-19.2,39.4c-1.1,2.4-2.9,5,0,7.3
			c2.6,2.2,6.5,1.6,9.1-1.3c2-2.2,3.7-4.7,4.9-7.5C526.6,125.8,530.2,116,535.5,106.9z"/>
		<path id="XMLID_6803_" class="st7" d="M569.7,54.4c7.5-0.4,13.5-4,15.9-6.2c3.2-2.9,5.3-6.5,5.6-7.1c3-6.1,3.7-10.5,1.1-17.8
			c-1.7-4.5-5.4-7.7-9.1-10.3c-6.9-4.8-15.1-6.6-23.3-3.8c-9.1,3.2-16.4,21.1-12.9,30.1C550.8,48.6,559.3,54.9,569.7,54.4z
			 M567.7,17.3c10,0.1,17.4,6.7,17.3,15.6c0,6.2-7.2,13-13.7,12.8c-8.1-0.2-15.5-7.4-15.4-14.9C556.1,24.1,562.1,17.2,567.7,17.3z"
			/>
		<path id="XMLID_6802_" class="st7" d="M626.5,112.9c-4-6.9-8.3-14.4-12.8-21.7c-3.7-6-7.2-12.1-10.1-18.4
			c-1.3-2.9-4.3-4.1-7.2-3.2c-3.1,0.9-5.3,4-4.4,6.5c0.5,1.4,1.4,2.8,2.2,4.1c5.3,9,12.5,17.2,16.1,26.7c3.3,8.7,10.2,16.1,13.1,25
			c0.6,1.7,2.1,3.5,4.8,3.4c2.7-0.2,4.6-1.8,5.9-3.6c1.2-1.7,0.3-3.5-0.8-4.9C630,122.6,628.2,118.1,626.5,112.9z"/>
		<path id="XMLID_7641_" class="st7" d="M688.7,133.1c0.9-22.3,1.5-46.7-6.3-74c-2.1-7.5-7.6-12.5-12.5-14.5
			c-6-2.4-12.4-1.6-18.5,0.4c-0.2,0.1-0.5,0.2-0.7,0.2c-4.1,1.4-7.3,3-10.5,5.5c-0.9,0.7-1.7,1.5-2.6,2.2c-0.1,0.1-0.3,0.3-0.4,0.4
			c-6.6,6.3-8.6,15.8-6,24.7c3,10.4,13.9,20.4,29.1,14.9c3.1-1.1,4.9-1.8,7.9-3.4c3.1-1.7,3.2-4.6,2.7-7c-0.3-1.6-2.3-3.4-4.3-3.5
			c-4.3-0.2-3.5,1.8-8,4.5c-2.5,1.5-7.7,1.9-9.5,1.3c-9.7-3.2-9.6-7.9-9.3-15c0.5-9.8,8.2-14.2,16.4-16.3c2.8-0.7,5.6-0.8,7.9-0.3
			c4.5,1,6,3.9,8.4,8.1c5.2,8.8,12.3,56.8,7,76.8c-0.8,2.8-1.3,4-4.2,2.4c-4.5-2.4-9.2-4.2-14.3-3.7c-8.1-0.7-13.7,3.1-17.8,9.5
			c-4.9,7.7-8.5,16.3-6,25.1c3,10.4,16.9,21.6,31.5,14.7c3.1-1.5,6.1-3,9.1-4.6c2.3-1.2,3.4-0.4,3.4,2.1c0,1.9-0.1,3.8,0,5.7
			c0.1,2.6,1.3,4.7,3.9,5c2.6,0.3,3.9-1.7,4.6-3.9c0.5-1.5,0.7-3.2,0.6-4.8C690.1,168,687.8,157.5,688.7,133.1z M679.7,163.7
			c-0.9,5.5-14.6,16.8-22.5,13.7c-8.1-3.2-10.8-6.1-10-13.8c1-9.3,7-15.5,15.2-16.5c7-0.8,11.7,2.4,15.6,7.5
			C679.4,156.6,680.2,160.5,679.7,163.7z"/>
	</g>
</g>
<g>
	<g class="st8">
		<path d="M177.5,284.3c2.2,5.4-1.3,4.7-0.6,10.7c-0.5,9.7-12.3,18.8-20.2,21.3c-0.9,2.2-5.7,1.4-7.5,0.3l-2-1.1l0.5-4.4
			c0-1,2.8-0.8,2.8-1.5c0-0.9-1.5-0.9-1.7-1.9c-0.1-13.5-1.3-25.6-2.6-38.9c-2.7-0.5-7.5-1.7-4.4-6.1c4.1-2.4,9.9-1.9,14.9-0.9
			c6.6,2.5,15,2.4,18.2,9.9c0.6,4,4.4,8.6,2.7,12.7L177.5,284.3z M172.5,288.7c0.2-5.1-1.7-13.1-3.9-16.2c-1.5-2.4-4.3-2.4-6.2-3.7
			c-2.8-0.6-8-1.6-10.2-0.6c-2.8,7.3,2.9,12.5,0.4,20.5c1.6,3.3,1,8.8,1.1,13.5c0.1,1.8,0.5,6.1,1,7.8c0.3,1,2-1.1,2.6-0.3
			c1.9-0.5,9.5-5.1,10.6-6.8c0.5-0.9,1.2-2.7,1.9-3.6C171.4,297.2,171.8,289.3,172.5,288.7z"/>
		<path d="M218.7,320.2c-1.4,0.8-3,1.1-4.7,1c-2.6,1.1-5.5,1.8-8.4,2.6c-3.9,1.1-7.9,2.2-11,4.3c-2.3,0.6-3.9-1.2-4.7-2.9
			c-1-7.5,0.2-18.6-1-26.3c-1.3-0.9-1.3-2.4-1.8-3.7c3.3-3.1-0.8-6.7,1.1-10.2c0.1-3-0.9-7.1-0.5-10.6c0.2-2.5,1.1-4.5,3.6-5.6
			c3.3,1.1,6.9,0.3,10.3,0c5.3-0.5,10.8-1.8,15.7-1l0.4,0.9c1.1,2.3-1.6,3.2-2.6,4.2c-3.3,1.4-7.6,1.5-11.7,1.8
			c-3.1,0.2-6.2,0.5-8.7,1.6c-2.3,4.1,0.8,10.8-0.1,14.9c0.1,1.8,1.2,2.2,3.8,1.3c4.4-1,10.3,0.4,13.9-2.8c1.8-0.2,3.4,0.2,4.5,1.9
			c0.3,4.5-4.8,3.8-7.5,5.2c-4.3,0.6-9.3,2.9-14.2,2c-0.2,3.8-0.2,12.9,0.5,17c-0.3,0.9,0.5,2.4,1,3.8c3.3-0.6,6.7-1.7,10-2.7
			c4.2-1.3,8.5-2.5,12.6-3.1c1.8,0.1,2.3,1.4,3.2,2.7C221.5,318,220.2,319.3,218.7,320.2z"/>
		<path d="M287.4,306.3c1.7,3.1,2.7,8.1,1,10.7l-4.3,0.9c-1.6-0.6-1.7-3.2-1-4.6c-0.4-5.7-1.1-10.7-1.4-16.3c-2.4-2.6-1.3-6.6-3-9.3
			c-0.2-5.2-0.9-10.6-2.6-15.1c-1.4,0.5-2.5,2-2.3,3.4c-4,3.9-5,9-8.9,12.8c0.1,4.5-6.8,5.2-4.7,9.9c0.6,1.7-1.3,2.6-2.3,3.2
			c-2.2-0.8-2.9-3.7-5.2-5.2c-3.7-3.4-7.9-7.6-10.2-12.2l-2.8-2.7c-3.3,3.6,0.8,8.6-1.9,12.5c0.1,5.1-0.4,17.2-2.5,21.9
			c-1.2,0.5-2.9,0.8-4.1,0.9c-2.5-1.6-1.7-3.1-1-5.5c2.2-8.7,2.4-24.4,3.3-33.2c0.4-3.3-3.1-6-0.4-9.4c0.9-1.5,2.7-4,4.6-2.3
			c0.2,4.6,4.8,7.5,6.7,11.6c2.8,4.3,7.3,8.8,11.1,13.1c5.6-5.5,9.3-12.8,13.6-19.7c1.8-2.8,1.3-6.9,5.1-8.3
			c3.3-1.3,2.9,3.9,6.1,2.7c4.3,4.8,1.7,13.1,3.8,18.3C284.8,292,288.8,298.4,287.4,306.3z"/>
		<path d="M362.3,301.4c1.1,7.6-5,10.9-7.3,16.9c-3.3,1.8-6.6,5.7-10.4,6.8c-4.1,1.1-7.6,3.1-12,3.8c-3.6-0.5-9,1.1-12.4-1.4
			c-8.5-0.3-15.8-8.9-18.2-16.5c-4.2-5.3-3.1-12.8-4.6-19.3c1.3-11.2,5.3-22.2,15.5-28.8c8.2-1.7,14.8-7.4,23.9-6.9
			c8.3-0.2,16.9,3.1,20.6,11c4.4,2,4.5,6.7,6.8,10.1C364.2,285,366.3,294.8,362.3,301.4z M353.6,270.8c-4.6-7.3-12.3-9.4-20.6-8.7
			c-9,0.8-16.7,6.4-23.7,11.5c-0.8,3.1-3.1,5.6-4,8.7c-2.4,7.5-1.8,17.6,1.1,24.7c1.7,4,4.2,7.8,8,11c5.5,6.9,15.5,4,23.3,4
			c8.4-2.9,16.5-11.3,19.7-19.6C359.5,292,361.7,278.9,353.6,270.8z"/>
	</g>
	<g>
		<path class="st9" d="M173.5,280.3c2.2,5.4-1.3,4.7-0.6,10.7c-0.5,9.7-12.3,18.8-20.2,21.3c-0.9,2.2-5.7,1.4-7.5,0.3l-2-1.1
			l0.5-4.4c0-1,2.8-0.8,2.8-1.5c0-0.9-1.5-0.9-1.7-1.9c-0.1-13.5-1.3-25.6-2.6-38.9c-2.7-0.5-7.5-1.7-4.4-6.1
			c4.1-2.4,9.9-1.9,14.9-0.9c6.6,2.5,15,2.4,18.2,9.9c0.6,4,4.4,8.6,2.7,12.7L173.5,280.3z M168.5,284.7c0.2-5.1-1.7-13.1-3.9-16.2
			c-1.5-2.4-4.3-2.4-6.2-3.7c-2.8-0.6-8-1.6-10.2-0.6c-2.8,7.3,2.9,12.5,0.4,20.5c1.6,3.3,1,8.8,1.1,13.5c0.1,1.8,0.5,6.1,1,7.8
			c0.3,1,2-1.1,2.6-0.3c1.9-0.5,9.5-5.1,10.6-6.8c0.5-0.9,1.2-2.7,1.9-3.6C167.4,293.2,167.8,285.3,168.5,284.7z"/>
		<path class="st9" d="M214.7,316.2c-1.4,0.8-3,1.1-4.7,1c-2.6,1.1-5.5,1.8-8.4,2.6c-3.9,1.1-7.9,2.2-11,4.3
			c-2.3,0.6-3.9-1.2-4.7-2.9c-1-7.5,0.2-18.6-1-26.3c-1.3-0.9-1.3-2.4-1.8-3.7c3.3-3.1-0.8-6.7,1.1-10.2c0.1-3-0.9-7.1-0.5-10.6
			c0.2-2.5,1.1-4.5,3.6-5.6c3.3,1.1,6.9,0.3,10.3,0c5.3-0.5,10.8-1.8,15.7-1l0.4,0.9c1.1,2.3-1.6,3.2-2.6,4.2
			c-3.3,1.4-7.6,1.5-11.7,1.8c-3.1,0.2-6.2,0.5-8.7,1.6c-2.3,4.1,0.8,10.8-0.1,14.9c0.1,1.8,1.2,2.2,3.8,1.3
			c4.4-1,10.3,0.4,13.9-2.8c1.8-0.2,3.4,0.2,4.5,1.9c0.3,4.5-4.8,3.8-7.5,5.2c-4.3,0.6-9.3,2.9-14.2,2c-0.2,3.8-0.2,12.9,0.5,17
			c-0.3,0.9,0.5,2.4,1,3.8c3.3-0.6,6.7-1.7,10-2.7c4.2-1.3,8.5-2.5,12.6-3.1c1.8,0.1,2.3,1.4,3.2,2.7
			C217.5,314,216.2,315.3,214.7,316.2z"/>
		<path class="st9" d="M283.4,302.3c1.7,3.1,2.7,8.1,1,10.7l-4.3,0.9c-1.6-0.6-1.7-3.2-1-4.6c-0.4-5.7-1.1-10.7-1.4-16.3
			c-2.4-2.6-1.3-6.6-3-9.3c-0.2-5.2-0.9-10.6-2.6-15.1c-1.4,0.5-2.5,2-2.3,3.4c-4,3.9-5,9-8.9,12.8c0.1,4.5-6.8,5.2-4.7,9.9
			c0.6,1.7-1.3,2.6-2.3,3.2c-2.2-0.8-2.9-3.7-5.2-5.2c-3.7-3.4-7.9-7.6-10.2-12.2l-2.8-2.7c-3.3,3.6,0.8,8.6-1.9,12.5
			c0.1,5.1-0.4,17.2-2.5,21.9c-1.2,0.5-2.9,0.8-4.1,0.9c-2.5-1.6-1.7-3.1-1-5.5c2.2-8.7,2.4-24.4,3.3-33.2c0.4-3.3-3.1-6-0.4-9.4
			c0.9-1.5,2.7-4,4.6-2.3c0.2,4.6,4.8,7.5,6.7,11.6c2.8,4.3,7.3,8.8,11.1,13.1c5.6-5.5,9.3-12.8,13.6-19.7c1.8-2.8,1.3-6.9,5.1-8.3
			c3.3-1.3,2.9,3.9,6.1,2.7c4.3,4.8,1.7,13.1,3.8,18.3C280.8,288,284.8,294.4,283.4,302.3z"/>
		<path class="st9" d="M358.3,297.4c1.1,7.6-5,10.9-7.3,16.9c-3.3,1.8-6.6,5.7-10.4,6.8c-4.1,1.1-7.6,3.1-12,3.8
			c-3.6-0.5-9,1.1-12.4-1.4c-8.5-0.3-15.8-8.9-18.2-16.5c-4.2-5.3-3.1-12.8-4.6-19.3c1.3-11.2,5.3-22.2,15.5-28.8
			c8.2-1.7,14.8-7.4,23.9-6.9c8.3-0.2,16.9,3.1,20.6,11c4.4,2,4.5,6.7,6.8,10.1C360.2,281,362.3,290.8,358.3,297.4z M349.6,266.8
			c-4.6-7.3-12.3-9.4-20.6-8.7c-9,0.8-16.7,6.4-23.7,11.5c-0.8,3.1-3.1,5.6-4,8.7c-2.4,7.5-1.8,17.6,1.1,24.7c1.7,4,4.2,7.8,8,11
			c5.5,6.9,15.5,4,23.3,4c8.4-2.9,16.5-11.3,19.7-19.6C355.5,288,357.7,274.9,349.6,266.8z"/>
	</g>
	<path class="st10" d="M451.2,256.5c1.1,1.2-0.4,3.7-1.4,4.2c-7.6,1.4-14.4-1-22.3-0.1c-1,0.6-1.6,1.4-2,2.3
		c-1.1,2.3-0.5,4.6-1.3,7.3l0.3,0.5c-0.8,6-0.3,13.4,0.1,20.4c0.3,4.4,0.6,10.9,0.8,14.5c0.1,1.9,1.1,4,1.3,6
		c0.2,1.6-0.2,3.1-1.7,4.4c0,1.2,0.2,3-1.4,3.1c-1.9-0.6-2.5-2.2-2.7-4c-0.2-1.9-0.1-4.2-1.2-5.8c0.9-4.2-1.3-11.2,0-15.7
		c-0.8-8.6-0.4-21.4-0.8-30.6c0-1.3-1.6-1.4-2.7-1.3c-1.7,1.5-4.3-0.9-6.6,1c-3.4-2-7.6-0.2-11.3-0.4c-1.7-0.1-3.2-0.8-4.5-2.4
		c0.5-1.7,1.4-3.6,3.1-4.2c8.7,0.2,18.6,0.4,26.7-0.9c4.8-1.6,17.3,1.2,26.3,0.5l1.4,1L451.2,256.5z"/>
	<path class="st10" d="M469.7,248c-2,0.9-1.6,4.7-5,5.9c-2.9,0.2-5.5,1-8,1.1c-1.7,0.1-3.4-0.1-5.2-1.1c-5.1-0.5-7.5-5.1-9.6-8.9
		c-0.5-7.9,1.2-15.3,8.3-19.6c1.3-0.4,2.8-0.6,4.2-0.6c3.4,0,7,1.2,10,2.3l6,6.1c1.1,2.9,3.9,6.7,1,9.5h0.1
		C472.4,245,470.4,246.3,469.7,248z M457.1,231c-1.4-0.2-2.7-0.2-4,0c-1.7,0.6-3,2.2-3.9,3.8c-1.3,1.4-1.9,3.2-1.9,5.2
		s0.5,3.8,1.3,5.4c1.7,2.2,4,2.6,6.2,3.9c1,0.5,1.9,0.8,2.9,0.8c3.1,0,5.8-2.5,8.3-3.9c1.1-1.9,1.6-5.4,0.8-7.6
		C465.4,233.9,461.2,231.5,457.1,231z M461.6,328.1c-0.6,0.1-1.3,0.1-1.8,0c-0.9-1.1-1.2-2.3-1.3-3.4c-0.4-3.6,1.4-7.3-0.6-10.8
		c0.5-2.4,0-3.9-0.4-6.1c1-10.7-1.1-20.1-2.3-29.9c-0.2-1.7-0.4-3.6-0.5-5.3c0.8-1.8,2.6-3.2,4.2-3.3c1.3-0.1,2.6,0.6,3.3,2.5
		c0.1,1.8-0.3,3.8,0.3,5.2l-0.3,0.6c0.5,5.2,0.5,10.7,1.8,15.7c-0.4,7.5,2,16.2,0.5,23.4c0.3,3.1,1.3,5.3,1,8.7v0.1
		C465.2,327.1,463.3,327.9,461.6,328.1z"/>
	<path class="st10" d="M524,309.8c-1.9-2.2-1.8-5.7-3.7-7.3c0.9-2.3-1.4-4.3-1-6.8c-2.3-0.9-0.8-3.4-1.8-4.6c-1-1.8-1.6-3.9-3.1-5.5
		c-3,4.2-7.4,7.9-7.4,13.1c-1.6,0.5-2.6,2.3-4.5,3.2c-3.4-1.9-6.1-4.7-8.2-8.2c-3.4-2.9-6.4-5.5-9.7-8.2l-0.9,1
		c2,4.7-1.1,15.4,1.2,20.1c0,2.5,1.1,3.7-3.6,4.2c-0.9,0.1-1.6-0.1-2.2-0.8c0.1-9.9-1-22.9-1-32.3c1.6-0.9,2.7-3,5.1-2.3l17.8,17.2
		c4.7-4.8,7-12.2,12.4-16.8c2.3-2,4.6-0.8,5.9,1.8c-0.2,2.7,0.2,5.1,1.3,7.2l-0.3,0.5c2.7,6.9,4.1,14.4,8.6,20.5l0.1,0.1
		C529,309,526.8,309.8,524,309.8z"/>
	<path class="st10" d="M570.7,282.9c-0.6,0.3-1.3,0-1.7,0.2c-0.8,0.4-0.4,0.4-1.3,1.4c-8.2-0.4-17,2.5-25.1,3.4
		c-1.2,2.5,2.9,7.2,4,10.7c3.1,2.6,5.9,5.6,9.4,7.4c0.5,0.2,1.7,0.1,2.3,0.2c0.6,0.2,0.9,0.8,1.5,1c0.5,0.1,1.5-0.1,2,0
		c0.6,0.1,0.9,0.4,1.5,0.4c0.6,0,1.3,0,1.9-0.1c0.6,1.6,3.2,1.1,2.4,3.2c-1.3,1.6-3.6,0.5-4.6,2.6c-9.3-0.3-16.7-7.2-22.8-13.7
		c-1.3-2.9-3.3-5.4-3.7-8.5c0.5-2-0.9-3.3-1.4-5.1c0.5-5.3,1.2-10.8,3.2-15.5c1.6-4,3.9-7.5,7.8-10.3c3.1-2,7.9-3.3,12.1-3
		c3.1,0.3,6.6,1.7,8.3,4.4c0.5,2,3.2,3.6,3.6,5.5c0.2,0.6,0.1,1.5-0.4,2.6c0.3,0.3,0.5,0.8,0.8,1.3c0.3,0.5-0.2,0.8-0.1,1.2
		c0.1,0.3,1.2,1,1.2,1.4c0.3,2.5-0.9,5,1.3,6.8C572.4,281.1,571.5,282.4,570.7,282.9z M566.2,277.6c-0.5-2.6,0-9.4-3.3-11.5
		c-1.9-3.6-4.8-3.9-9.6-3c-6,1.5-8.1,6.2-10,11.1c-0.2,1.6-1.7,4.7-1.1,6.5c0.2,0.4,0.1,1.3,0.8,1.5c5.5-2.2,9-1.4,14.8-3.2
		c0.9,1.3,5.1-1.3,5.5-1.3H566.2z"/>
</g>
</svg>
